<?xml version="1.0" encoding="utf-8"?>
<!-- Generator: Adobe Illustrator 23.0.2, SVG Export Plug-In . SVG Version: 6.00 Build 0)  -->
<svg version="1.1" id="Layer_1" xmlns="http://www.w3.org/2000/svg" xmlns:xlink="http://www.w3.org/1999/xlink" x="0px" y="0px"
	 viewBox="0 0 23.5 23.4" style="enable-background:new 0 0 23.5 23.4;" xml:space="preserve">
<style type="text/css">
	.st0{fill:#FF3A4D;}
</style>
<path class="st0" d="M21.5,7.8c-0.1-0.1-0.1-0.2-0.1-0.3c0.1-0.5,0-1-0.2-1.5c-0.6-2.4-2.8-4-5.3-3.9c-0.2,0-0.3-0.1-0.4-0.2
	c-0.3-0.4-0.6-0.6-1-0.9c-2.1-1.3-5.1-1-6.8,0.9C7.8,2,7.7,2,7.6,2C6.7,1.9,6,2.2,5.2,2.5c-2,0.9-3.2,2.8-3,5c0,0.2-0.1,0.3-0.2,0.4
	c-0.8,0.7-1.2,1.5-1.5,2.5c-0.1,0.3-0.1,0.6-0.2,0.9v0.9c0.1,0,0.1,0.1,0.1,0.1c0.2,1.4,0.7,2.6,1.8,3.5c0.1,0.1,0.1,0.1,0.1,0.2
	C2,17,2.3,18.1,3,19.1c1.1,1.5,2.7,2.4,4.7,2.3c0.1,0,0.2,0.1,0.3,0.1c0.7,0.8,1.6,1.3,2.5,1.5c0.2,0.1,0.5,0.1,0.8,0.2h0.9
	c0-0.1,0.1-0.1,0.1-0.1c1.4-0.1,2.6-0.7,3.6-1.8c0.1-0.1,0.1-0.1,0.2-0.1c0.4,0.1,0.8,0,1.1-0.1c2.6-0.5,4.4-2.7,4.3-5.4
	c0-0.2,0.1-0.3,0.2-0.4c1.1-1,1.7-2.2,1.7-3.7C23.3,10.3,22.7,8.9,21.5,7.8z M12.9,6.7l-0.2,6.6h-1.8l-0.2-6.6H12.9z M12.7,16.4
	c-0.2,0.2-0.5,0.3-0.9,0.3c-0.4,0-0.7-0.1-0.9-0.3c-0.2-0.2-0.3-0.5-0.3-0.8c0-0.4,0.1-0.6,0.3-0.8c0.2-0.2,0.5-0.3,0.9-0.3
	c0.4,0,0.7,0.1,0.9,0.3c0.2,0.2,0.3,0.5,0.3,0.8C13,16,12.9,16.2,12.7,16.4z"/>
</svg>
